# Blender 5.1.2
# www.blender.org
mtllib cone.mtl
o Cylinder
v 0.000000 -0.250000 -0.250000
v 0.000000 0.250000 -0.000000
v 0.125000 -0.250000 -0.216506
v 0.216506 -0.250000 -0.125000
v 0.250000 -0.250000 0.000000
v 0.216506 -0.250000 0.125000
v 0.125000 -0.250000 0.216506
v 0.000000 -0.250000 0.250000
v -0.125000 -0.250000 0.216506
v -0.216506 -0.250000 0.125000
v -0.250000 -0.250000 0.000000
v -0.216506 -0.250000 -0.125000
v -0.125000 -0.250000 -0.216506
vn -0.0000 0.4472 -0.8944
vn -0.0000 1.0000 -0.0000
vn 0.4472 0.4472 -0.7746
vn 0.7746 0.4472 -0.4472
vn 0.8944 0.4472 -0.0000
vn 0.7746 0.4472 0.4472
vn 0.4472 0.4472 0.7746
vn -0.0000 0.4472 0.8944
vn -0.4472 0.4472 0.7746
vn -0.7746 0.4472 0.4472
vn -0.8944 0.4472 -0.0000
vn -0.7746 0.4472 -0.4472
vn -0.4472 0.4472 -0.7746
vn -0.0000 -1.0000 -0.0000
vt 1.000000 0.500000
vt 0.916667 1.000000
vt 0.916667 0.500000
vt 0.833333 1.000000
vt 0.833333 0.500000
vt 0.750000 1.000000
vt 0.750000 0.500000
vt 0.666667 1.000000
vt 0.666667 0.500000
vt 0.583333 1.000000
vt 0.583333 0.500000
vt 0.500000 1.000000
vt 0.500000 0.500000
vt 0.416667 1.000000
vt 0.416667 0.500000
vt 0.333333 1.000000
vt 0.333333 0.500000
vt 0.250000 1.000000
vt 0.250000 0.500000
vt 0.166667 1.000000
vt 0.166667 0.500000
vt 0.083333 1.000000
vt 0.083333 0.500000
vt 0.000000 1.000000
vt 0.000000 0.500000
vt 0.870000 0.042154
vt 0.630000 0.042154
vt 0.630000 0.457846
vt 0.750000 0.490000
vt 0.870000 0.457846
vt 0.957846 0.370000
vt 0.990000 0.250000
vt 0.957846 0.130000
vt 0.750000 0.010000
vt 0.542154 0.130000
vt 0.510000 0.250000
vt 0.542154 0.370000
s 1
f 1/1/1 2/2/2 3/3/3
f 3/3/3 2/4/2 4/5/4
f 4/5/4 2/6/2 5/7/5
f 5/7/5 2/8/2 6/9/6
f 6/9/6 2/10/2 7/11/7
f 7/11/7 2/12/2 8/13/8
f 8/13/8 2/14/2 9/15/9
f 9/15/9 2/16/2 10/17/10
f 10/17/10 2/18/2 11/19/11
f 11/19/11 2/20/2 12/21/12
f 12/21/12 2/22/2 13/23/13
f 13/23/13 2/24/2 1/25/1
f 7/26/14 9/27/14 13/28/14
f 13/28/14 1/29/14 3/30/14
f 3/30/14 4/31/14 13/28/14
f 4/31/14 5/32/14 13/28/14
f 5/32/14 6/33/14 7/26/14
f 7/26/14 8/34/14 9/27/14
f 9/27/14 10/35/14 13/28/14
f 10/35/14 11/36/14 13/28/14
f 11/36/14 12/37/14 13/28/14
f 5/32/14 7/26/14 13/28/14
