# Blender 5.1.2
# www.blender.org
mtllib head.mtl
o Head
v -1.000000 -0.802121 -0.027043
v -0.866025 -0.802121 -0.527043
v -0.500000 -0.802121 -0.893068
v 0.000000 -0.802121 -1.027043
v 0.500000 -0.802121 -0.893068
v 0.866025 -0.802121 -0.527043
v 1.000000 -0.802121 -0.027043
v 0.866025 -0.802121 0.472957
v 0.500000 -0.802121 0.838983
v -0.000000 -0.802121 0.972957
v -0.500000 -0.802121 0.838983
v -0.866025 -0.802121 0.472957
v -0.690244 -1.000000 -0.027043
v -0.869313 -0.928355 -0.027043
v -0.597769 -1.000000 -0.372165
v -0.752847 -0.928355 -0.461699
v -0.345122 -1.000000 -0.624811
v -0.434656 -0.928355 -0.779889
v 0.000000 -1.000000 -0.717287
v 0.000000 -0.928355 -0.896355
v 0.345122 -1.000000 -0.624811
v 0.434656 -0.928355 -0.779889
v 0.597769 -1.000000 -0.372165
v 0.752847 -0.928355 -0.461699
v 0.690244 -1.000000 -0.027043
v 0.869313 -0.928355 -0.027043
v 0.597769 -1.000000 0.318080
v 0.752847 -0.928355 0.407614
v 0.345122 -1.000000 0.570726
v 0.434656 -0.928355 0.725804
v -0.000000 -1.000000 0.663202
v -0.000000 -0.928355 0.842270
v -0.345122 -1.000000 0.570726
v -0.434656 -0.928355 0.725804
v -0.597769 -1.000000 0.318080
v -0.752847 -0.928355 0.407614
v -1.000000 0.802121 -0.027043
v -0.866025 0.802121 -0.527043
v -0.500000 0.802121 -0.893068
v 0.000000 0.802121 -1.027043
v 0.500000 0.802121 -0.893068
v 0.866025 0.802121 -0.527043
v 1.000000 0.802121 -0.027043
v 0.866025 0.802121 0.472957
v 0.500000 0.802121 0.838983
v -0.000000 0.802121 0.972957
v -0.500000 0.802121 0.838983
v -0.866025 0.802121 0.472957
v -0.690244 1.000000 -0.027043
v -0.869313 0.928355 -0.027043
v -0.597769 1.000000 -0.372165
v -0.752847 0.928355 -0.461699
v -0.345122 1.000000 -0.624811
v -0.434656 0.928355 -0.779889
v 0.000000 1.000000 -0.717287
v 0.000000 0.928355 -0.896355
v 0.345122 1.000000 -0.624811
v 0.434656 0.928355 -0.779889
v 0.597769 1.000000 -0.372165
v 0.752847 0.928355 -0.461699
v 0.690244 1.000000 -0.027043
v 0.869313 0.928355 -0.027043
v 0.597769 1.000000 0.318080
v 0.752847 0.928355 0.407614
v 0.345122 1.000000 0.570726
v 0.434656 0.928355 0.725804
v -0.000000 1.000000 0.663202
v -0.000000 0.928355 0.842270
v -0.345122 1.000000 0.570726
v -0.434656 0.928355 0.725804
v -0.597769 1.000000 0.318080
v -0.752847 0.928355 0.407614
vn -0.9293 -0.3692 -0.0000
vn -0.8048 -0.3692 -0.4647
vn -0.4647 -0.3692 -0.8048
vn -0.0000 -0.3692 -0.9293
vn 0.4647 -0.3692 -0.8048
vn 0.8048 -0.3692 -0.4647
vn 0.9293 -0.3693 -0.0000
vn 0.8048 -0.3692 0.4647
vn 0.4647 -0.3692 0.8048
vn -0.0000 -0.3692 0.9293
vn -0.4647 -0.3692 0.8048
vn -0.8048 -0.3692 0.4647
vn -0.2192 -0.9757 -0.0000
vn -0.5650 -0.8251 -0.0000
vn -0.1898 -0.9757 -0.1096
vn -0.4893 -0.8251 -0.2825
vn -0.1096 -0.9757 -0.1898
vn -0.2825 -0.8251 -0.4893
vn -0.0000 -0.9757 -0.2192
vn -0.0000 -0.8251 -0.5650
vn 0.1096 -0.9757 -0.1898
vn 0.2825 -0.8251 -0.4893
vn 0.1898 -0.9757 -0.1096
vn 0.4893 -0.8251 -0.2825
vn 0.2192 -0.9757 -0.0000
vn 0.5650 -0.8251 -0.0000
vn 0.1898 -0.9757 0.1096
vn 0.4893 -0.8251 0.2825
vn 0.1096 -0.9757 0.1898
vn 0.2825 -0.8251 0.4893
vn -0.0000 -0.9757 0.2192
vn -0.0000 -0.8251 0.5650
vn -0.1096 -0.9757 0.1898
vn -0.2825 -0.8251 0.4893
vn -0.1898 -0.9757 0.1096
vn -0.4893 -0.8251 0.2825
vn -0.9293 0.3692 -0.0000
vn -0.8048 0.3692 -0.4647
vn -0.4647 0.3692 -0.8048
vn -0.0000 0.3692 -0.9293
vn 0.4647 0.3692 -0.8048
vn 0.8048 0.3692 -0.4647
vn 0.9293 0.3693 -0.0000
vn 0.8048 0.3692 0.4647
vn 0.4647 0.3692 0.8048
vn -0.0000 0.3692 0.9293
vn -0.4647 0.3692 0.8048
vn -0.8048 0.3692 0.4647
vn -0.2192 0.9757 -0.0000
vn -0.5650 0.8251 -0.0000
vn -0.1898 0.9757 -0.1096
vn -0.4893 0.8251 -0.2825
vn -0.1096 0.9757 -0.1898
vn -0.2825 0.8251 -0.4893
vn -0.0000 0.9757 -0.2192
vn -0.0000 0.8251 -0.5650
vn 0.1096 0.9757 -0.1898
vn 0.2825 0.8251 -0.4893
vn 0.1898 0.9757 -0.1096
vn 0.4893 0.8251 -0.2825
vn 0.2192 0.9757 -0.0000
vn 0.5650 0.8251 -0.0000
vn 0.1898 0.9757 0.1096
vn 0.4893 0.8251 0.2825
vn 0.1096 0.9757 0.1898
vn 0.2825 0.8251 0.4893
vn -0.0000 0.9757 0.2192
vn -0.0000 0.8251 0.5650
vn -0.1096 0.9757 0.1898
vn -0.2825 0.8251 0.4893
vn -0.1898 0.9757 0.1096
vn -0.4893 0.8251 0.2825
vt 0.750000 0.415659
vt 0.854317 0.430683
vt 0.832829 0.393465
vt 0.930683 0.354318
vt 0.893464 0.332829
vt 0.915659 0.250000
vt 0.958635 0.250000
vt 0.930683 0.145682
vt 0.893465 0.167171
vt 0.832829 0.106535
vt 0.854318 0.069317
vt 0.750000 0.084341
vt 0.750000 0.041365
vt 0.645682 0.069317
vt 0.667171 0.106535
vt 0.606536 0.167171
vt 0.569317 0.145682
vt 0.584341 0.250000
vt 0.541365 0.250000
vt 0.569317 0.354318
vt 0.606535 0.332829
vt 0.667171 0.393465
vt 0.645682 0.430683
vt 0.750000 0.458635
vt 0.750000 0.490000
vt 0.630000 0.457846
vt 0.870000 0.457846
vt 0.957846 0.370000
vt 0.990000 0.250000
vt 0.957846 0.130000
vt 0.870000 0.042154
vt 0.630000 0.042154
vt 0.750000 0.010000
vt 0.542154 0.130000
vt 0.510000 0.250000
vt 0.542154 0.370000
vt 0.666667 0.549470
vt 0.750000 0.549470
vt 0.333333 0.549470
vt 0.416667 0.549470
vt 0.500000 0.549470
vt 0.583333 0.549470
vt 0.833333 0.549470
vt 0.916667 0.549470
vt 0.250000 0.549470
vt 1.000000 0.549470
vt 0.000000 0.549470
vt 0.083333 0.549470
vt 0.166667 0.549470
s 1
f 13/1/13 16/2/16 15/3/15
f 15/3/15 18/4/18 17/5/17
f 19/6/19 18/4/18 20/7/20
f 19/6/19 22/8/22 21/9/21
f 23/10/23 22/8/22 24/11/24
f 25/12/25 24/11/24 26/13/26
f 25/12/25 28/14/28 27/15/27
f 29/16/29 28/14/28 30/17/30
f 31/18/31 30/17/30 32/19/32
f 31/18/31 34/20/34 33/21/33
f 35/22/35 34/20/34 36/23/36
f 13/1/13 36/23/36 14/24/14
f 1/25/1 36/23/36 12/26/12
f 19/6/19 27/15/27 35/22/35
f 2/27/2 14/24/14 1/25/1
f 3/28/3 16/2/16 2/27/2
f 4/29/4 18/4/18 3/28/3
f 5/30/5 20/7/20 4/29/4
f 5/30/5 24/11/24 22/8/22
f 6/31/6 26/13/26 24/11/24
f 8/32/8 26/13/26 7/33/7
f 9/34/9 28/14/28 8/32/8
f 10/35/10 30/17/30 9/34/9
f 11/36/11 32/19/32 10/35/10
f 41/37/41 4/38/4 40/38/40
f 45/39/45 8/40/8 44/40/44
f 43/41/43 6/42/6 42/42/42
f 42/42/42 5/37/5 41/37/41
f 44/40/44 7/41/7 43/41/43
f 40/38/40 3/43/3 39/43/39
f 39/43/39 2/44/2 38/44/38
f 12/26/12 34/20/34 11/36/11
f 52/2/52 49/1/49 51/3/51
f 54/4/54 51/3/51 53/5/53
f 55/6/55 54/4/54 53/5/53
f 58/8/58 55/6/55 57/9/57
f 59/10/59 58/8/58 57/9/57
f 61/12/61 60/11/60 59/10/59
f 64/14/64 61/12/61 63/15/63
f 65/16/65 64/14/64 63/15/63
f 67/18/67 66/17/66 65/16/65
f 70/20/70 67/18/67 69/21/69
f 71/22/71 70/20/70 69/21/69
f 49/1/49 72/23/72 71/22/71
f 72/23/72 37/25/37 48/26/48
f 46/45/46 9/39/9 45/39/45
f 50/24/50 38/27/38 37/25/37
f 52/2/52 39/28/39 38/27/38
f 54/4/54 40/29/40 39/28/39
f 56/7/56 41/30/41 40/29/40
f 41/30/41 60/11/60 42/31/42
f 42/31/42 62/13/62 43/33/43
f 62/13/62 44/32/44 43/33/43
f 64/14/64 45/34/45 44/32/44
f 66/17/66 46/35/46 45/34/45
f 68/19/68 47/36/47 46/35/46
f 70/20/70 48/26/48 47/36/47
f 38/44/38 1/46/1 37/46/37
f 37/47/37 12/48/12 48/48/48
f 47/49/47 10/45/10 46/45/46
f 48/48/48 11/49/11 47/49/47
f 67/18/67 59/10/59 51/3/51
f 13/1/13 14/24/14 16/2/16
f 15/3/15 16/2/16 18/4/18
f 19/6/19 17/5/17 18/4/18
f 19/6/19 20/7/20 22/8/22
f 23/10/23 21/9/21 22/8/22
f 25/12/25 23/10/23 24/11/24
f 25/12/25 26/13/26 28/14/28
f 29/16/29 27/15/27 28/14/28
f 31/18/31 29/16/29 30/17/30
f 31/18/31 32/19/32 34/20/34
f 35/22/35 33/21/33 34/20/34
f 13/1/13 35/22/35 36/23/36
f 1/25/1 14/24/14 36/23/36
f 35/22/35 13/1/13 15/3/15
f 15/3/15 17/5/17 19/6/19
f 19/6/19 21/9/21 23/10/23
f 23/10/23 25/12/25 27/15/27
f 27/15/27 29/16/29 31/18/31
f 31/18/31 33/21/33 35/22/35
f 35/22/35 15/3/15 19/6/19
f 19/6/19 23/10/23 27/15/27
f 27/15/27 31/18/31 35/22/35
f 2/27/2 16/2/16 14/24/14
f 3/28/3 18/4/18 16/2/16
f 4/29/4 20/7/20 18/4/18
f 5/30/5 22/8/22 20/7/20
f 5/30/5 6/31/6 24/11/24
f 6/31/6 7/33/7 26/13/26
f 8/32/8 28/14/28 26/13/26
f 9/34/9 30/17/30 28/14/28
f 10/35/10 32/19/32 30/17/30
f 11/36/11 34/20/34 32/19/32
f 41/37/41 5/37/5 4/38/4
f 45/39/45 9/39/9 8/40/8
f 43/41/43 7/41/7 6/42/6
f 42/42/42 6/42/6 5/37/5
f 44/40/44 8/40/8 7/41/7
f 40/38/40 4/38/4 3/43/3
f 39/43/39 3/43/3 2/44/2
f 12/26/12 36/23/36 34/20/34
f 52/2/52 50/24/50 49/1/49
f 54/4/54 52/2/52 51/3/51
f 55/6/55 56/7/56 54/4/54
f 58/8/58 56/7/56 55/6/55
f 59/10/59 60/11/60 58/8/58
f 61/12/61 62/13/62 60/11/60
f 64/14/64 62/13/62 61/12/61
f 65/16/65 66/17/66 64/14/64
f 67/18/67 68/19/68 66/17/66
f 70/20/70 68/19/68 67/18/67
f 71/22/71 72/23/72 70/20/70
f 49/1/49 50/24/50 72/23/72
f 72/23/72 50/24/50 37/25/37
f 46/45/46 10/45/10 9/39/9
f 50/24/50 52/2/52 38/27/38
f 52/2/52 54/4/54 39/28/39
f 54/4/54 56/7/56 40/29/40
f 56/7/56 58/8/58 41/30/41
f 41/30/41 58/8/58 60/11/60
f 42/31/42 60/11/60 62/13/62
f 62/13/62 64/14/64 44/32/44
f 64/14/64 66/17/66 45/34/45
f 66/17/66 68/19/68 46/35/46
f 68/19/68 70/20/70 47/36/47
f 70/20/70 72/23/72 48/26/48
f 38/44/38 2/44/2 1/46/1
f 37/47/37 1/47/1 12/48/12
f 47/49/47 11/49/11 10/45/10
f 48/48/48 12/48/12 11/49/11
f 51/3/51 49/1/49 71/22/71
f 71/22/71 69/21/69 67/18/67
f 67/18/67 65/16/65 63/15/63
f 63/15/63 61/12/61 59/10/59
f 59/10/59 57/9/57 55/6/55
f 55/6/55 53/5/53 51/3/51
f 51/3/51 71/22/71 67/18/67
f 67/18/67 63/15/63 59/10/59
f 59/10/59 55/6/55 51/3/51
